<?xml version="1.0" encoding="UTF-8"?>
<svg id="Layer_1" data-name="Layer 1" xmlns="http://www.w3.org/2000/svg" viewBox="0 0 969.33 1001.07">
  <path d="M450.44,899.26c44.98-13.53,89.02-30.3,133.04-46.66,13.21-31.71,46.37-43.27,75.63-56.95,13.26-6.2,26.66-12.4,40.59-17.03l1.09-1.49c-18.32-64.47,44.79-113.25,97.31-64.92,10.59-8.32,21.37-16.71,35.32-18.63,48.29-6.61,76.15,37.41,65.41,81.38-2.3,9.39-7.89,16.32-10.7,25.22,22.25-8.15,45.38-40,71.08-22.36,14.04,9.63,11.71,23.07,3.69,35.65-16.5,25.88-49.31,55.78-75.89,71.07-11.21,6.45-47.81,24.26-59.25,25.61-5.37.64-6.66-3.23-10.33-2.73-9.26,1.25-35.88,13.86-48.45,17.24-33.18,8.9-71.4,10.91-103.27,21.32-33.34,10.89-69.56,33.53-102.37,47.78-3.88,1.68-16.17,7.56-19.22,7.28-72.34-41.88-152.98-67.09-232.65-91.42-84.87-25.91-171-47.79-256.1-72.97l-2.44-2.24c.91-9.9,4.03-50.94-.34-57.26-2.88-4.15-44.6-15.7-52.58-18.5,20.13-80.52,104.85-103.73,175.37-122.53,23.8-6.34,47.94-11.93,72.15-16.5,1.07-32.22-7.11-46.85,25.65-61.4,5.93-2.64,32.27-9.18,33.53-10.41,2.48-2.43-.89-2.8-2.06-3.56-9.55-6.29-26.55-7.72-28.32-22.75-1.77-15.03,1.5-31.48-.16-46.16-10.03-5.38-21.28-7.08-28.29-18.03-8.55-13.35-7.87-56.55-6.72-73.29.96-13.99,4.19-27,20.17-29.34,5.37-.8,13.85,2.4,15.05-4.12,1.07-5.78,1.07-43.78-.03-49.49-.99-5.14-13.58-8.55-17.86-20.46-6.9-19.2,3.98-25.61,17.4-35.99,63.88-49.44,135.69-92.93,201.01-140.82l38.72-97.05c2.75-4.49,8.63-7.01,13.72-6.74,6.66.37,37.7,10.22,44.17,13.5,9.84,4.97,8.72,10.46,7.78,20.59-2.84,30.59-12.78,63.35-15.77,94.29l35.27,94.26c4.17,5.75,15.48,1.05,21.36.86,20.91-.69,40.62-2.72,53.32,17.09,6.9,10.75,18.45,58.89,17.48,71.26-1.41,17.71-19.76,23.29-31.23,32.3,9.36,11.45,2.89,21.23,2.83,31.98-.11,20.3,3.42,41.72,1.65,62.34-1.68,19.42-12.36,31.63-31.85,34.44-1.85,2.16,1.73,44.13-.88,52.63-.75,2.44-2.99,4.63-4.89,6.29l-21.55,14.36c15.65,5.18,59.17,13.94,62.2,32.84,1.79,11.09.85,25.88,1.84,37.3,59.88,15.46,120.01,31.4,177.13,55.27l-45.41,11.95c-43.1-21.85-91.45-29.25-137.5-42.47-59.57,48.53-139.46,63.11-214.83,63.27v194.89ZM555.64,30.51c-.86-1.34-18.82-5.24-22.12-6.61l-30.4,85.44,39.95,12c-1.18-11.66,15.3-86.58,12.57-90.83ZM547.46,147.33c-21.05-6.82-42.36-14.86-63.86-19.3-50.32,37.19-103.59,70.87-153.46,108.64-1.5,1.13-11.28,7.36-9.07,9.28,79.37-.18,157.2,19.09,231.6,44.73-7.59-41.59-15.64-83.19-19.14-125.41-.14-1.74-1.17-5.96,1.57-5.54l49.89,139.42c1.09,4.57,24.15,13.34,25.21,12.32l-62.7-164.11-.03-.02ZM622.95,282.7c2.86,8.05,12.86,41.12,19.2,43.99,2.97,1.34,18.39-6.31,21.84-8.55,2.12-1.37,6.76-4.63,7.64-6.74,3.98-9.49-7.86-57.11-16.15-63.64-6.37-5.02-44.49-4.57-45.41-.91.53,24.5,25.05,5.49,36.87,19.02,4.55,5.21,12.01,26.72,10.89,33.19-.88,5.13-12.35,12.94-15.59,10.65-5.91-4.19-2.03-31.72-19.3-27.03h.02ZM643.49,363.96c2.96-4.74-5.49-11.36-8.83-13.9-43.93-33.53-146.7-64.45-201.46-74.88-35.24-6.71-105.81-17.28-139.42-9.38-5.42,1.28-19.78,8.53-8.67,12.09,114.45-3.15,228.88,24.71,329.88,77.44,5.02,2.62,14.73,10.3,19.12,11.36,1.88.45,8.83-1.85,9.38-2.73h0ZM311.47,295.47h-15.97c3.42,9.28-.18,18.11-.06,26.28.05,3,1.68,6.13,1.73,9.6.38,32.76-.42,65.57-.08,98.32h14.39v-134.19ZM329.04,295.47v144.56c5.38,8.64,45.94,35.99,47.6,41.85,1.33,4.7,4.01,23.29-1.25,26.02.38-1.93-.73-2.64-2.03-3.67-11.04-8.9-22.27-17.6-33.14-26.66v44.73c-5.24-2.3-18.15-9.36-20.37-13.98-5.38-11.2,1.26-42.19-2.44-47.87-1.39-2.14-15.03-10.85-18.72-10.03v59.9c0,7.2,54.13,29.63,63.06,32.78,56.71,19.95,107.36,23.07,165.69,7.51,29.71-7.92,57.71-21.24,84.31-36.29v-65.49c-4.54-.89-6.77,1.39-10.11,3.47-15.94,9.94-33.58,28.43-49.12,40.33-2.38,1.82-17.7,13.56-19.02,12.11.86-7.06-2.01-18.59,1.76-24.58l47.43-42.03.06-78.49c-78.08-39.98-165.98-60.59-253.72-64.15h.02ZM611.77,429.64v-50.32c0-.89-9.22-8-11.18-7.19v57.5h11.18ZM276.33,375.33c-3.55.42-11.71-1.33-13.67,1.5-1.71,2.44-1.2,53.19-.27,59.58,1.17,8.07,4.97,15.97,13.96,17.19v-78.27h-.02ZM646.91,386.51c-1.87,1.26-12.78,2.54-12.78,3.19v62.3c6.58,1.2,12.78-12.4,12.78-16.77v-48.72ZM578.22,560.63c-1.98-.11-15.97,3.96-15.97,4.79v35.14c2.83.27,15.97-3.77,15.97-5.59v-34.34ZM353,598.96v-31.15c0-2.24-13.16-6.61-15.97-5.59v31.15c0,2.24,13.16,6.61,15.97,5.59ZM311.47,567.02c-2.78-2.76-35.16,9.03-38.18,13.74s-2.7,41.9.18,47.43,31.76,21.4,39.02,24.87c28.93,13.8,68.73,25.08,100.6,28.78,11.26,1.31,35.89,4.58,44.53-1.41l56.69-50.33c.53-3.99-1.12-1.9-3.27-1.69-63.94,6.13-156.19,1.76-213.98-28.61-6.58-3.45-17.24-7.28-8.48-13.34,9.95-6.88,12.89.22,22.89,1.31v-20.77.02ZM483.98,683.61c40.89-3.11,85.11-11.23,122.47-28.46,8.32-3.83,31.26-16.21,36.39-22.71,5.13-6.5,6.09-43.38,2.3-50.04-4.14-7.27-29.57-13.9-38.14-15.35v20.75c5.64.81,9.25-4.98,14.76-4.49,2.59.22,16.44,5.7,13.98,9.26-14.49,8-29.01,16.17-44.79,21.53-14.31,4.87-29.76,6.5-43.59,12.32l-63.37,57.22v-.02ZM533.5,575c-30.57,6.37-61.34,9.41-92.65,7.99v28.75c31.05.67,61.96-.1,92.65-4.79v-31.95ZM410.5,579.79l-17.57-3.19v27.95c0,3.08,14.74,4.87,17.57,3.99v-28.75ZM209.24,757.1v-66.29l63.86-33.54-19.9-12.87-75.91,18.48,31.95,94.23h0ZM151.64,669.28c-43.11,11.28-91.94,28.18-116.46,67.86.21,3.02,17.06,5.69,20.38,6.72,45.78,14.17,89.31,35.22,131.3,57.97-2.8-45.49-16.92-91.06-35.22-132.55ZM231.82,704.61l.51,140.42,172.96,63.45c7.62,1.63,15.33-.94,22.06-4.34l.03-199.84c-1.1-1.58-32.51-4.2-37.97-5.16-30.97-5.4-60.89-15.09-89.95-26.82l-67.65,32.28v.02ZM800.22,744.3c-1.52,1.05-2.92-.58-3.9-1.65-3.23-3.56-6.2-10.61-10.41-15.14-35.25-38.02-81.96.75-65.64,44.87,14.55.35,28.21.81,36.28,14.84,7.94,13.82-.48,29.47,1.28,32.19.94,1.47,26.23,16.4,29.85,18.16,13.05,6.33,14.58,8.1,28.02,1.26,25.09-12.75,61.34-44.09,65.6-73.37,6.87-47.03-41.07-73.17-73.03-34.69-2.33,2.8-7.4,13.08-8.05,13.53h0ZM111.8,832.18v-29.55c-9.63-6.12-21.24-9.46-31.95-13.58v32.75c9.7,5,21.48,6.64,31.95,10.38ZM937.6,817.78c2.27-7.19,12.59-13.23,11.29-21.52-1.6-10.21-24.22.58-25.54,4.97-.75,2.46,8.61,13.05,10.96,15.54,1.26,1.34,1.09,1.47,3.29,1.01ZM716.81,794.25c-6.37.86-41.75,13.29-45.22,17.08-6.64,7.25,2.91,23.42,11.33,23.98,11.13.73,53.93-18.39,56.35-29.85,2.81-13.23-13.61-12.4-22.46-11.2h0ZM130.97,810.61c-1.65,6.57,1.2,18.98,0,26.36l56.69,14.39c3.56-15.46.1-16.98-11.92-23.23-13.23-6.88-28.37-11.98-41.52-19.23-.94-1.33-3.15,1.25-3.26,1.71h0ZM891.31,852.92c3.8,2.16,27.99-18.31,28.56-21.77.54-3.27-10.1-16.72-13.72-17.83-3.88-1.18-7.62-.18-11.36.78-2.33.59-20.3,9.22-21.04,10.11-.88,1.07-.11,2.24,1.01,3.29,7.28,6.88,17.86,13.51,16.55,25.41ZM672.47,852.96c-9.31-1.84-15.99-11.93-18.77-20.48-1.23-3.75.48-11.69-4.11-11.26-1.33.13-21.15,10.3-23.34,11.85-8.02,5.7-18.24,16.95-19.26,27.04-3.85,38.03,33.11,21.05,50.97,7.86,2.52-1.85,16.47-12.4,14.5-15.02h0ZM721.99,841.76h35.94c.69,0,6.41,5.7,2.43-.81l-16.76-11.93-21.6,12.76-.02-.02ZM829.01,884.89c2.06,1.84,44.61-16.68,47.19-20.8,4.17-6.68-11.37-27-22.09-25.25-7.89,1.28-24.04,17.49-34.68,17.32,3.27,9.6,9.07,18.23,9.58,28.74h0ZM733.17,862.52c-12.17.93-26.16-1.76-38.03,1.1-11.47,2.76-26.58,20.09-38.61,26.88-12.03,6.79-23.42,10.73-36.79,11.17-.34,4.55,9.54,21.61,13.96,22.87,5.03,1.44,8.47-1.79,12.86-2.49,31-4.95,62.25-8.56,93.01-14.82.99-1.41-6.39-14.42-6.39-16.76v-27.95h-.02ZM804.68,869.28c-4.62-4.71-43.34-8.74-49.74-6.55-8.23,2.81-2.94,37.7,10.89,39.01,5.45.51,44.42-9.52,45.49-13.05.45-1.52-5.54-18.26-6.64-19.39v-.02ZM584.61,878.5c-1.41-1.36-17.17,4.34-18.39,6.36-1.71,2.83-.94,17.09-.35,21.18,1.88,12.97,17.84,39.9,30.03,45.17,3.29,1.42,17.89-4.07,17.32-7.76-.32-2.01-17.92-28.07-20.89-35.11-3.93-9.31-6.87-19.76-7.7-29.84h-.02ZM546.28,892.87l-99.02,35.13c31.68,12.91,62.86,27.2,92.63,44.05,8.4,2.27,24.15-9.57,33.54-10.51-17.59-18.26-29.18-42.79-27.15-68.67Z"/>
  <path d="M630.47,748.62c-.97.91-3.07,2.06-4.38,1.39-1.63-.83-9.38-12.22-13.53-15.27-8.83-6.47-21.77-7.28-30.37-.03-23.8,20.13,8.37,59.23,29.57,67.12-2.2,2.28-13.56,10.51-15.46,10.85-8.35,1.45-32.89-28.38-36.45-36.42-21.24-47.98,27.73-87.61,67.38-51.32,11.52-9.87,23.11-17.83,39.26-15.37,4.58.7,20.99,7.2,20.13,12.89-.24,1.55-7.75,10.77-9.39,11.58-3.59,1.77-5.93-4.25-10.7-5.35-11.1-2.57-21.56,2.24-29.28,9.98-3.02,3.04-4.66,7.95-6.79,9.95h.02Z"/>
  <path d="M488.29,800.69c11.36,14.06-11.58,31.26-20.38,16.42-8.51-14.34,12.22-26.52,20.38-16.42Z"/>
  <path d="M477.21,720.63c17.78-2.97,19.3,30.76-4.5,22.97-10.45-3.42-7.92-20.91,4.5-22.97Z"/>
  <path d="M361.54,392.34c-13.42-13.88-10.96-39.76,6.58-49.01,30.22-15.93,58.48,21.05,37.59,47.17-10.22,12.78-33.05,13.35-44.17,1.85v-.02Z"/>
  <path d="M517.08,340.56c44.34-9.31,50.99,57.38,10.59,60.22-37.99,2.68-42.98-53.43-10.59-60.22Z"/>
  <path d="M490.37,444.02h-70.28l32.76-79.88,37.52,79.88ZM458.42,399.29c-1.9-2.56-2.91,0-3.19,2.38-1.09,9.23-.59,18.91-3.18,27.97h14.36c1.63-1.55-10.4-25.11-7.99-30.35Z"/>
  <path d="M517.51,471.17v17.55c-25.69,4.42-51.15,8.1-77.44,6.39-7.25-.48-34.28-3.91-39.65-6.68-5.08-2.6-1.88-12.25-2.68-17.27,39.28,7.86,80.67,10.1,119.79,0h-.02Z"/>
  <path d="M852.97,725.15c38.78,26.68,1.58,72.36-24.12,93.29-4.17,3.4-19.12,13.96-23.42,15.05-4.66,1.18-7.38-2.44-11.55-2.92,13.67-15.45,29.5-28.64,41.23-45.8,4.74-6.93,17.87-29.01,17.87-36.44v-23.16l-.02-.02Z"/>
  <path d="M454.7,644.1c12.57-.38,15.62,18.63,5.8,21.63-17.87,5.49-22.22-21.13-5.8-21.63Z"/>
  <path d="M294.28,620.11c7.67-7.67,25.96,3.37,15.62,14.82-10.81,11.98-23.88-6.57-15.62-14.82Z"/>
  <path d="M354.12,639.18c13.56-4.12,19.89,12.78,10.02,18.03-16.64,8.85-20.32-14.9-10.02-18.03Z"/>
  <path d="M159.7,765.09c-7.57-5.42-16.6-8.67-25.54-11.2l11.21-43.1,11.05,34.44,3.29,19.86h-.02Z"/>
  <path d="M612.18,635.3c-7.4-7.81,3.69-23.62,14.87-15.69,11.34,8.05-4.3,26.85-14.87,15.69Z"/>
  <path d="M558.56,639.22c19.95-6.13,19.33,24.47,0,18.55-7.46-2.28-7.49-16.23,0-18.55Z"/>
</svg>